<svg width="50" height="50" viewBox="0 0 50 50" fill="none" xmlns="http://www.w3.org/2000/svg">
<path d="M25 0.0395508C11.2148 0.0395508 0.0400391 11.2144 0.0400391 24.9996C0.0400391 38.7848 11.2148 49.9596 25 49.9596C38.7852 49.9596 49.96 38.7848 49.96 24.9996C49.96 11.2144 38.7852 0.0395508 25 0.0395508ZM18.89 35.345H13.8356V19.0793H18.89V35.345ZM16.3316 17.0825C14.7352 17.0825 13.703 15.9515 13.703 14.5527C13.703 13.1253 14.7664 12.0282 16.3966 12.0282C18.0268 12.0282 19.0252 13.1253 19.0564 14.5527C19.0564 15.9515 18.0268 17.0825 16.3316 17.0825ZM37.35 35.345H32.2956V26.3308C32.2956 24.2326 31.5624 22.8077 29.7346 22.8077C28.3384 22.8077 27.509 23.7724 27.1424 24.7006C27.0072 25.0308 26.9734 25.4988 26.9734 25.9642V35.3423H21.9164V24.2664C21.9164 22.2358 21.8514 20.538 21.7838 19.0768H26.1752L26.4066 21.3361H26.508C27.1736 20.2754 28.8038 18.7101 31.5312 18.7101C34.8566 18.7101 37.35 20.9384 37.35 25.7276V35.345V35.345Z" fill="black"/>
</svg>
