<svg width="50" height="50" viewBox="0 0 50 50" fill="none" xmlns="http://www.w3.org/2000/svg">
<path d="M32.8 24.9996C32.8 27.0682 31.9783 29.0522 30.5155 30.515C29.0527 31.9778 27.0687 32.7995 25 32.7995C22.9314 32.7995 20.9474 31.9778 19.4846 30.515C18.0218 29.0522 17.2 27.0682 17.2 24.9996C17.2 24.555 17.2468 24.1208 17.3274 23.6996H14.6V34.0918C14.6 34.8145 15.185 35.3996 15.9078 35.3996H34.0948C34.4412 35.3989 34.7732 35.2608 35.0179 35.0156C35.2626 34.7704 35.4 34.4381 35.4 34.0918V23.6996H32.6726C32.7532 24.1208 32.8 24.555 32.8 24.9996ZM25 30.1996C25.6831 30.1994 26.3594 30.0647 26.9904 29.8031C27.6214 29.5416 28.1947 29.1583 28.6775 28.6752C29.1604 28.1921 29.5434 27.6186 29.8046 26.9875C30.0658 26.3564 30.2002 25.68 30.2 24.997C30.1999 24.3139 30.0652 23.6376 29.8036 23.0066C29.5421 22.3756 29.1588 21.8023 28.6757 21.3195C28.1926 20.8366 27.6191 20.4536 26.988 20.1924C26.3569 19.9311 25.6805 19.7968 24.9974 19.7969C23.618 19.7973 22.2951 20.3456 21.3199 21.3213C20.3448 22.297 19.7971 23.6201 19.7974 24.9996C19.7978 26.379 20.3461 27.7019 21.3218 28.677C22.2975 29.6522 23.6206 30.1999 25 30.1996ZM31.24 19.5396H34.3574C34.5645 19.5396 34.7632 19.4575 34.9099 19.3113C35.0566 19.165 35.1394 18.9667 35.14 18.7596V15.6421C35.14 15.4346 35.0576 15.2355 34.9108 15.0888C34.7641 14.942 34.565 14.8595 34.3574 14.8595H31.24C31.0325 14.8595 30.8334 14.942 30.6867 15.0888C30.5399 15.2355 30.4574 15.4346 30.4574 15.6421V18.7596C30.46 19.1885 30.811 19.5396 31.24 19.5396ZM25 0.0395508C18.3802 0.0395508 12.0316 2.66926 7.35065 7.35016C2.66975 12.0311 0.0400391 18.3797 0.0400391 24.9996C0.0400391 31.6194 2.66975 37.968 7.35065 42.6489C12.0316 47.3298 18.3802 49.9596 25 49.9596C28.2778 49.9596 31.5235 49.3139 34.5518 48.0596C37.5801 46.8052 40.3317 44.9667 42.6494 42.6489C44.9672 40.3312 46.8057 37.5796 48.0601 34.5513C49.3144 31.523 49.96 28.2773 49.96 24.9996C49.96 21.7218 49.3144 18.4761 48.0601 15.4478C46.8057 12.4195 44.9672 9.66792 42.6494 7.35016C40.3317 5.03241 37.5801 3.19388 34.5518 1.93952C31.5235 0.68516 28.2778 0.0395508 25 0.0395508ZM38 35.111C38 36.6996 36.7 37.9995 35.1114 37.9995H14.8886C13.3 37.9995 12 36.6996 12 35.111V14.8882C12 13.2996 13.3 11.9995 14.8886 11.9995H35.1114C36.7 11.9995 38 13.2996 38 14.8882V35.111Z" fill="black"/>
</svg>
